<svg width="87" height="86" viewBox="0 0 87 86" fill="none" xmlns="http://www.w3.org/2000/svg">
<path id="Vector" d="M69.4022 68.4084C64.6564 68.4084 60.8512 72.2136 60.8512 76.9594C60.8512 79.2273 61.7521 81.4023 63.3557 83.0059C64.9593 84.6095 67.1343 85.5105 69.4022 85.5105C71.6701 85.5105 73.8451 84.6095 75.4487 83.0059C77.0523 81.4023 77.9532 79.2273 77.9532 76.9594C77.9532 74.6915 77.0523 72.5165 75.4487 70.9129C73.8451 69.3093 71.6701 68.4084 69.4022 68.4084ZM0.993835 0V8.55105H9.54488L24.9368 41.0023L19.1221 51.4773C18.4807 52.6744 18.0959 54.0854 18.0959 55.5818C18.0959 57.8497 18.9968 60.0247 20.6005 61.6283C22.2041 63.2319 24.3791 64.1328 26.647 64.1328H77.9532V55.5818H28.4427C28.1592 55.5818 27.8873 55.4692 27.6869 55.2687C27.4864 55.0683 27.3738 54.7964 27.3738 54.5129C27.3738 54.2991 27.4166 54.1281 27.5021 53.9999L31.35 47.0307H63.2027C66.4093 47.0307 69.2312 45.235 70.6849 42.627L85.9912 14.9643C86.2905 14.2802 86.5043 13.5534 86.5043 12.8266C86.5043 11.6926 86.0538 10.6051 85.252 9.80332C84.4502 9.0015 83.3627 8.55105 82.2288 8.55105H18.9938L14.9748 0M26.647 68.4084C21.9011 68.4084 18.0959 72.2136 18.0959 76.9594C18.0959 79.2273 18.9968 81.4023 20.6005 83.0059C22.2041 84.6095 24.3791 85.5105 26.647 85.5105C28.9149 85.5105 31.0898 84.6095 32.6935 83.0059C34.2971 81.4023 35.198 79.2273 35.198 76.9594C35.198 74.6915 34.2971 72.5165 32.6935 70.9129C31.0898 69.3093 28.9149 68.4084 26.647 68.4084Z" fill="white"/>
</svg>
